<svg width="64" height="64" viewBox="0 0 64 64" xmlns="http://www.w3.org/2000/svg">
  <defs>
    <radialGradient id="defensiveRareGrad" cx="50%" cy="50%" r="50%">
      <stop offset="0%" style="stop-color:#93C5FD;stop-opacity:1" />
      <stop offset="70%" style="stop-color:#3B82F6;stop-opacity:0.8" />
      <stop offset="100%" style="stop-color:#1E3A8A;stop-opacity:0.9" />
    </radialGradient>
  </defs>

  <!-- Background circle -->
  <circle cx="32" cy="32" r="30" fill="url(#defensiveRareGrad)" stroke="#3B82F6" stroke-width="3"/>

  <!-- Tower shield symbol -->
  <rect x="24" y="14" width="16" height="32" rx="2" fill="#FFF" stroke="#3B82F6" stroke-width="1"/>
  <rect x="26" y="44" width="12" height="4" rx="1" fill="#3B82F6"/>

  <!-- Inner design -->
  <rect x="28" y="18" width="8" height="8" rx="1" fill="#3B82F6" opacity="0.8"/>
  <rect x="28" y="28" width="8" height="2" fill="#3B82F6" opacity="0.6"/>
  <rect x="28" y="32" width="8" height="2" fill="#3B82F6" opacity="0.6"/>
  <rect x="28" y="36" width="8" height="2" fill="#3B82F6" opacity="0.6"/>

  <!-- Energy barrier effect -->
  <rect x="22" y="12" width="20" height="36" rx="3" fill="none" stroke="#93C5FD" stroke-width="1" opacity="0.6"/>

  <!-- Sparkles -->
  <circle cx="20" cy="20" r="1.5" fill="#FFF" opacity="0.8"/>
  <circle cx="44" cy="20" r="1" fill="#FFF" opacity="0.6"/>
  <circle cx="20" cy="44" r="1" fill="#FFF" opacity="0.7"/>
  <circle cx="44" cy="44" r="1.5" fill="#FFF" opacity="0.8"/>

  <!-- Inner glow -->
  <rect x="24" y="14" width="16" height="32" rx="2" fill="none" stroke="#93C5FD" stroke-width="0.8" opacity="0.9"/>

  <!-- Rarity border -->
  <circle cx="32" cy="32" r="30" fill="none" stroke="#3B82F6" stroke-width="1.5" opacity="0.8"/>
</svg>