<svg width="64" height="64" viewBox="0 0 64 64" xmlns="http://www.w3.org/2000/svg">
  <defs>
    <radialGradient id="supportUncommonGrad" cx="50%" cy="50%" r="50%">
      <stop offset="0%" style="stop-color:#BBF7D0;stop-opacity:1" />
      <stop offset="70%" style="stop-color:#22C55E;stop-opacity:0.8" />
      <stop offset="100%" style="stop-color:#15803D;stop-opacity:0.9" />
    </radialGradient>
  </defs>

  <!-- Background circle -->
  <circle cx="32" cy="32" r="30" fill="url(#supportUncommonGrad)" stroke="#22C55E" stroke-width="2.5"/>

  <!-- Shield symbol with enhancement -->
  <path d="M32 12 L42 18 L42 34 Q42 42 32 48 Q22 42 22 34 L22 18 Z" fill="#FFF" stroke="#22C55E" stroke-width="1"/>

  <!-- Inner design -->
  <circle cx="32" cy="28" r="6" fill="#22C55E" opacity="0.8"/>
  <path d="M28 24 L36 24 L36 32 L28 32 Z" fill="#FFF"/>

  <!-- Sparkles -->
  <circle cx="24" cy="24" r="1.5" fill="#FFF" opacity="0.8"/>
  <circle cx="40" cy="24" r="1" fill="#FFF" opacity="0.6"/>
  <circle cx="24" cy="40" r="1" fill="#FFF" opacity="0.7"/>
  <circle cx="40" cy="40" r="1.5" fill="#FFF" opacity="0.8"/>

  <!-- Inner glow -->
  <path d="M32 12 L42 18 L42 34 Q42 42 32 48 Q22 42 22 34 L22 18 Z" fill="none" stroke="#BBF7D0" stroke-width="0.7" opacity="0.8"/>

  <!-- Rarity border -->
  <circle cx="32" cy="32" r="30" fill="none" stroke="#22C55E" stroke-width="1.2" opacity="0.7"/>
</svg>