<svg width="64" height="64" viewBox="0 0 64 64" xmlns="http://www.w3.org/2000/svg">
  <defs>
    <linearGradient id="staffWoodGrad" x1="0%" y1="0%" x2="100%" y2="100%">
      <stop offset="0%" style="stop-color:#DEB887;stop-opacity:1" />
      <stop offset="50%" style="stop-color:#A0522D;stop-opacity:1" />
      <stop offset="100%" style="stop-color:#8B4513;stop-opacity:1" />
    </linearGradient>
    <radialGradient id="orbGrad" cx="50%" cy="50%" r="50%">
      <stop offset="0%" style="stop-color:#FFFFFF;stop-opacity:1" />
      <stop offset="30%" style="stop-color:#FF69B4;stop-opacity:0.9" />
      <stop offset="70%" style="stop-color:#CD853F;stop-opacity:0.8" />
      <stop offset="100%" style="stop-color:#8B4513;stop-opacity:1" />
    </radialGradient>
    <radialGradient id="bestialGlow" cx="50%" cy="50%" r="50%">
      <stop offset="0%" style="stop-color:#FFB347;stop-opacity:0.8" />
      <stop offset="70%" style="stop-color:#CD853F;stop-opacity:0.6" />
      <stop offset="100%" style="stop-color:#A0522D;stop-opacity:0.4" />
    </radialGradient>
  </defs>

  <!-- Main staff shaft -->
  <rect x="30" y="15" width="4" height="40" rx="2"
        fill="url(#staffWoodGrad)" stroke="#654321" stroke-width="1"/>

  <!-- Ornate head piece -->
  <circle cx="32" cy="12" r="6"
          fill="url(#orbGrad)" stroke="#8B4513" stroke-width="1"/>

  <!-- Bestial energy around orb -->
  <circle cx="32" cy="12" r="8" fill="url(#bestialGlow)" opacity="0.5"/>

  <!-- Decorative bands on staff -->
  <rect x="29" y="20" width="6" height="2" rx="1" fill="#FFD700"/>
  <rect x="29" y="30" width="6" height="2" rx="1" fill="#FFD700"/>
  <rect x="29" y="40" width="6" height="2" rx="1" fill="#FFD700"/>

  <!-- Carved animal motifs -->
  <g transform="translate(32,25)" opacity="0.7">
    <!-- Wolf head silhouette -->
    <path d="M-2,-1 Q0,-3 2,-1 Q3,0 2,2 Q0,1 -2,2 Q-3,0 -2,-1"
          fill="#654321"/>
    <circle cx="-1" cy="-0.5" r="0.3" fill="#FFD700"/>
    <circle cx="1" cy="-0.5" r="0.3" fill="#FFD700"/>
  </g>

  <g transform="translate(32,35)" opacity="0.7">
    <!-- Bear paw print -->
    <circle cx="0" cy="0" r="1" fill="#654321"/>
    <circle cx="-1" cy="-1" r="0.4" fill="#654321"/>
    <circle cx="1" cy="-1" r="0.4" fill="#654321"/>
    <circle cx="-1.5" cy="0.5" r="0.3" fill="#654321"/>
    <circle cx="1.5" cy="0.5" r="0.3" fill="#654321"/>
  </g>

  <g transform="translate(32,45)" opacity="0.7">
    <!-- Eagle feather -->
    <path d="M0,-2 Q1,-1 0,2 Q-1,1 -1,0 Q-0.5,-1 0,-2"
          fill="#8B4513" stroke="#654321" stroke-width="0.3"/>
  </g>

  <!-- Staff tip ornaments -->
  <circle cx="32" cy="58" r="3" fill="#8B4513" stroke="#654321" stroke-width="1"/>
  <circle cx="32" cy="58" r="1.5" fill="#FFD700"/>

  <!-- Mystical energy wisps around the orb -->
  <g opacity="0.6">
    <path d="M24 12 Q26 10 28 12 Q30 10 32 12"
          fill="none" stroke="#FF69B4" stroke-width="0.8"/>
    <path d="M32 12 Q34 10 36 12 Q38 10 40 12"
          fill="none" stroke="#CD853F" stroke-width="0.8"/>
    <path d="M32 4 Q30 6 32 8 Q34 6 32 4"
          fill="none" stroke="#FFB347" stroke-width="0.8"/>
    <path d="M32 16 Q30 18 32 20 Q34 18 32 16"
          fill="none" stroke="#A0522D" stroke-width="0.8"/>
  </g>

  <!-- Transformation mask symbols floating around -->
  <g opacity="0.5">
    <ellipse cx="22" cy="18" rx="2" ry="1" fill="#FF69B4"/>
    <ellipse cx="42" cy="18" rx="2" ry="1" fill="#CD853F"/>
    <ellipse cx="18" cy="12" rx="1.5" ry="2" fill="#FFB347"/>
    <ellipse cx="46" cy="12" rx="1.5" ry="2" fill="#A0522D"/>
  </g>

  <!-- Wood grain details -->
  <g stroke="#A0522D" stroke-width="0.3" opacity="0.4">
    <line x1="30.5" y1="17" x2="33.5" y2="17"/>
    <line x1="30.5" y1="27" x2="33.5" y2="27"/>
    <line x1="30.5" y1="37" x2="33.5" y2="37"/>
    <line x1="30.5" y1="47" x2="33.5" y2="47"/>
  </g>

  <!-- Power core glow in orb -->
  <circle cx="32" cy="12" r="2" fill="#FFFFFF" opacity="0.8"/>
  <circle cx="32" cy="12" r="1" fill="#FF69B4" opacity="0.9"/>
</svg>