<svg width="64" height="64" viewBox="0 0 64 64" xmlns="http://www.w3.org/2000/svg">
  <defs>
    <linearGradient id="swordGrad" x1="0%" y1="0%" x2="100%" y2="100%">
      <stop offset="0%" style="stop-color:#E5E7EB;stop-opacity:1" />
      <stop offset="50%" style="stop-color:#9CA3AF;stop-opacity:1" />
      <stop offset="100%" style="stop-color:#6B7280;stop-opacity:1" />
    </linearGradient>
    <linearGradient id="pistolGrad" x1="0%" y1="0%" x2="100%" y2="100%">
      <stop offset="0%" style="stop-color:#92400E;stop-opacity:1" />
      <stop offset="50%" style="stop-color:#78350F;stop-opacity:1" />
      <stop offset="100%" style="stop-color:#451A03;stop-opacity:1" />
    </linearGradient>
  </defs>

  <!-- Sword blade -->
  <path d="M20 8 L22 12 L22 35 L20 37 L18 37 L16 35 L16 12 Z"
        fill="url(#swordGrad)" stroke="#4B5563" stroke-width="1"/>

  <!-- Sword crossguard -->
  <rect x="12" y="35" width="12" height="3" rx="1"
        fill="url(#swordGrad)" stroke="#4B5563" stroke-width="1"/>

  <!-- Sword handle -->
  <rect x="17" y="38" width="6" height="12" rx="2"
        fill="#8B4513" stroke="#451A03" stroke-width="1"/>

  <!-- Pistol body -->
  <path d="M35 25 L48 25 L50 28 L50 35 L48 38 L35 38 L35 32 L32 30 L32 28 L35 25 Z"
        fill="url(#pistolGrad)" stroke="#451A03" stroke-width="1"/>

  <!-- Pistol barrel -->
  <rect x="48" y="29" width="8" height="5" rx="2"
        fill="url(#swordGrad)" stroke="#4B5563" stroke-width="1"/>

  <!-- Pistol trigger -->
  <path d="M35 32 L38 35 L38 36 L35 36 Z"
        fill="#92400E" stroke="#451A03" stroke-width="1"/>

  <!-- Decorative elements -->
  <circle cx="19" cy="15" r="1" fill="#FFD700" opacity="0.8"/>
  <circle cx="41" cy="31" r="1" fill="#FFD700" opacity="0.8"/>

  <!-- Belle Époque flourish -->
  <path d="M20 20 Q22 18 24 20 Q22 22 20 20"
        fill="none" stroke="#FFD700" stroke-width="0.5" opacity="0.7"/>
</svg>